<svg xmlns="http://www.w3.org/2000/svg" version="1.1" xmlns:xlink="http://www.w3.org/1999/xlink" xmlns:svgjs="http://svgjs.dev/svgjs" width="1000" height="1000" viewBox="0 0 1000 1000"><rect width="1000" height="1000" fill="#8f5cb0"></rect><g transform="matrix(0.29473684210526313,0,0,0.29473684210526313,353.04959514170054,150.28340080971657)"><svg viewBox="0 0 104 247" data-background-color="#8f5cb0" preserveAspectRatio="xMidYMid meet" height="2375" width="1000" xmlns="http://www.w3.org/2000/svg" xmlns:xlink="http://www.w3.org/1999/xlink"><g id="tight-bounds" transform="matrix(1,0,0,1,-0.14750000000003638,-0.09999999999999432)"><svg viewBox="0 0 104.29463076923076 247.2" height="247.2" width="104.29463076923076"><g><svg></svg></g><g><svg viewBox="0 0 104.29463076923076 247.2" height="247.2" width="104.29463076923076"><g transform="matrix(1,0,0,1,0,47.215199999999996)"><svg viewBox="0 0 104.29463076923076 152.7696" height="152.7696" width="104.29463076923076"><g><svg viewBox="0 0 104.29463076923076 152.7696" height="152.7696" width="104.29463076923076"><g><svg viewBox="0 0 104.29463076923079 152.76960000000003" height="152.7696" width="104.29463076923076"><g><svg viewBox="0 0 104.29463076923079 152.76960000000003" height="152.76960000000003" width="104.29463076923079"><g id="textblocktransform"><svg viewBox="0 0 104.29463076923079 152.76960000000003" height="152.76960000000003" width="104.29463076923079" id="textblock"><g><svg viewBox="0 0 104.29463076923079 152.76960000000003" height="152.76960000000003" width="104.29463076923079"><g transform="matrix(1,0,0,1,0,0)"><svg width="104.29463076923079" viewBox="3.55 -36.4 24.849999999999998 36.4" height="152.76960000000003" data-palette-color="#ffffff"><path d="M26.75-27.95L26.75-27.95Q26.75-26.1 26.03-24.38 25.3-22.65 23.93-21.43 22.55-20.2 20.6-19.85L20.6-19.85Q23.1-19.5 24.83-18.13 26.55-16.75 27.48-14.7 28.4-12.65 28.4-10.2L28.4-10.2Q28.4-6.95 27.2-4.93 26-2.9 23.95-1.83 21.9-0.75 19.35-0.38 16.8 0 14.15 0L14.15 0 4.25 0 4.25-33.1Q4.25-33.15 4.08-33.9 3.9-34.65 3.75-35.45 3.6-36.25 3.55-36.4L3.55-36.4 15.7-36.4Q17.85-36.4 19.83-36.02 21.8-35.65 23.38-34.7 24.95-33.75 25.85-32.13 26.75-30.5 26.75-27.95ZM21.9-27.85L21.9-27.85Q21.9-29.85 21.03-30.95 20.15-32.05 18.7-32.5 17.25-32.95 15.55-32.95L15.55-32.95 8.9-32.95 8.9-21.35 14.25-21.35Q17.75-21.35 19.83-22.78 21.9-24.2 21.9-27.85ZM23.45-10.95L23.45-10.95Q23.45-13.5 22.13-15.03 20.8-16.55 18.73-17.23 16.65-17.9 14.45-17.9L14.45-17.9 8.9-17.9 8.9-3.45 14.45-3.45Q17.1-3.45 19.13-4.08 21.15-4.7 22.3-6.35 23.45-8 23.45-10.95Z" opacity="1" transform="matrix(1,0,0,1,0,0)" fill="#ffffff" class="wordmark-text-0" data-fill-palette-color="primary" id="text-0"></path></svg></g></svg></g></svg></g></svg></g><g></g></svg></g></svg></g></svg></g><path d="M0 41.215L0 1 104.295 1 104.295 41.215 90.518 41.215 90.518 14.777 13.777 14.777 13.777 41.215 0 41.215M0 205.985L0 246.2 104.295 246.2 104.295 205.985 90.518 205.985 90.518 232.423 13.777 232.423 13.777 205.985 0 205.985" fill="#ffffff" stroke="transparent" data-fill-palette-color="primary"></path></svg></g><defs></defs></svg><rect width="104.29463076923076" height="247.2" fill="none" stroke="none" visibility="hidden"></rect></g></svg></g></svg>